<svg xmlns="http://www.w3.org/2000/svg">
  <g id="LOAN_ACCOUNT">
    <path style="opacity:0.932" fill="currentColor" d="M 108.5,19.5 C 125.617,18.6409 138.783,25.3076 148,39.5C 156.644,57.4625 154.477,73.9625 141.5,89C 140.034,89.6355 138.7,90.4688 137.5,91.5C 131.067,86.5552 123.733,84.3885 115.5,85C 124.73,82.6707 129.23,76.8373 129,67.5C 128.394,64.4522 126.894,61.9522 124.5,60C 118.459,57.2291 112.625,54.0624 107,50.5C 105.833,43.8315 108.667,40.8315 115.5,41.5C 118.706,41.3474 121.706,42.0141 124.5,43.5C 126.171,41.4902 126.838,39.1569 126.5,36.5C 123.167,35.8333 119.833,35.1667 116.5,34.5C 116.5,32.1667 116.5,29.8333 116.5,27.5C 114.5,27.5 112.5,27.5 110.5,27.5C 110.5,30.1667 110.5,32.8333 110.5,35.5C 99.5074,37.4837 95.6741,43.817 99,54.5C 103.954,59.3966 109.787,62.8966 116.5,65C 122.705,72.4464 120.872,76.9464 111,78.5C 107.183,78.0041 103.516,77.0041 100,75.5C 97.5268,77.2254 97.0268,79.3921 98.5,82C 101.957,83.7435 105.623,84.7435 109.5,85C 100.167,85.6667 90.8333,85.6667 81.5,85C 69.0875,66.552 69.9208,48.7187 84,31.5C 90.996,24.9179 99.1627,20.9179 108.5,19.5 Z"/>
    <path style="opacity:0.961" fill="currentColor" d="M 178.5,83.5 C 187.528,84.0275 191.028,88.6941 189,97.5C 174.525,112.308 159.691,126.808 144.5,141C 116.167,141.333 87.8333,141.667 59.5,142C 47.5,154 35.5,166 23.5,178C 15.1786,180.927 10.3453,178.094 9,169.5C 8.43426,158.479 8.76759,147.479 10,136.5C 23.5,123 37,109.5 50.5,96C 76.0795,94.3523 101.746,94.019 127.5,95C 134.199,99.1875 135.199,104.521 130.5,111C 118.935,112.457 107.268,112.957 95.5,112.5C 95.2865,114.144 95.6198,115.644 96.5,117C 112.167,117.667 127.833,117.667 143.5,117C 154.759,105.237 166.426,94.0707 178.5,83.5 Z"/>
  </g>
</svg>
